<svg id="Layer_1" data-name="Layer 1" xmlns="http://www.w3.org/2000/svg" viewBox="0 0 57 97.68069"><title>beard-4</title><path d="M51.1211,15.24075c-0.3955-5.4532-.6103-10.8526-2.5205-15.2403-0.7646,0-1.5293,7.3135-2.2793,10.9199-1.4775,7.1397-3.7148,8.2832-4.4394,8.2803-0.8594-3.8574-4.3848-4.2412-7.8008-5.8799a11.09682,11.09682,0,0,0-3.6016-1.1992,14.57812,14.57812,0,0,0-1.9795.1162,14.40047,14.40047,0,0,0-1.9795-.1162,11.11936,11.11936,0,0,0-3.6015,1.1992c-3.416,1.6387-6.9414,2.0215-7.8008,5.8799-0.7246.0039-2.9629-1.1406-4.4395-8.2803C9.9287,7.315,9.1641.00045,8.3994,0.00045c-1.9101,4.3887-2.125,9.7871-2.5195,15.2403C5,38.77875,0,51.52875,0,62.39985,0,88.46629,11.708,97.68114,28.5,97.68114c16.791,0,28.5-9.21485,28.5-35.28129C57.001,51.52875,52.001,38.77875,51.1211,15.24075Zm-16.6806,9.7187c-2.793,1.1738-5.3536-.709-5.879-0.7187-0.0185-.001-0.0429.0058-0.0605,0.0058s-0.042-.0068-0.0605-0.0058c-0.5264.0097-3.086,1.8935-5.879,0.7187-0.7851-3.583,2.3956-4.042,5.9395-3.9043C32.0459,20.91745,35.2256,21.37745,34.4405,24.95945Z" transform="translate(0 -0.00045)"/></svg>