<svg id="Layer_1" data-name="Layer 1" xmlns="http://www.w3.org/2000/svg" viewBox="0 0 62.3974 78.4888"><title>beard-3</title><path d="M62.3969,42.00045c0-5.2129-2.3672-7.7754-3.5986-9.9609a56.01057,56.01057,0,0,1-4.2002-17.6397c-0.0664-4.9053-1.6924-12.4463-2.8799-14.3999-0.8643,0-1.5215,7.7808-2.2803,11.6392-1.4277,7.0429-3.7656,8.9345-4.4384,9-0.7579-2.8086-4.1133-7.3633-13.6768-7.7246-0.0479-.0166-0.083-0.0293-0.125-0.043-0.043.0137-.0781,0.0264-0.126,0.043-9.5615.3603-12.9179,4.916-13.6748,7.7246-0.6738-.0655-3.0107-1.9571-4.4385-9-0.7597-3.8575-1.416-11.6392-2.2802-11.6392-1.1885,1.9536-2.8135,9.4946-2.8799,14.3999a56.05716,56.05716,0,0,1-4.2002,17.6397c-1.2315,2.1855-3.5986,4.748-3.5986,9.9609,0,3.7441,5.1992,7.2031,5.6386,11.3984,0.125,1.2227-.0312,2.3496.1201,3.3614,2.003,17.4834,17.8672,21.7285,25.4385,21.7285h0c7.5733,0,23.4385-4.2442,25.4404-21.7285,0.1514-1.0118-.0048-2.1387.1202-3.3614C57.1967,49.20355,62.3969,45.74655,62.3969,42.00045ZM33.2368,26.76025a20.63316,20.63316,0,0,0-4.0801,0c-1.7315.3398-5.7608,0.9882-5.7608-1.0801,0-1.0684,6.7198-2.2949,7.8008-2.2949,1.0801,0,7.8008,1.2275,7.8018,2.2949C38.9985,27.74845,34.9702,27.1,33.2368,26.76025Z" transform="translate(0.0005 0.00005)"/></svg>