<svg id="Layer_1" data-name="Layer 1" xmlns="http://www.w3.org/2000/svg" viewBox="0 0 57.68075 68.6397"><title>hair-2</title><path d="M51.59989,22.2011c0.1211-1.6963.4746-3.5097,0.7197-5.3994,0.7041-5.4268,1.5967-11.6699-.1201-16.8008H51.9593c-1.3223,3.7432-1.2588,8.3477-2.1582,12.3604a19.71918,19.71918,0,0,1-3.2393,7.5605,4.36431,4.36431,0,0,1-1.9209,1.8008c-0.6631-3.9219-4.2832-4.9434-7.6806-6.3613-2.1289-.8877-3.9707-2.0157-6.1182-2.1592a10.77648,10.77648,0,0,0-2,.2305,10.61849,10.61849,0,0,0-2-.2305c-2.1484.1445-3.9902,1.2715-6.1191,2.1592-3.3965,1.4179-7.0176,2.4394-7.6807,6.3613a4.35923,4.35923,0,0,1-1.9209-1.8008,19.7185,19.7185,0,0,1-3.2383-7.5605C6.98269,8.3486,7.04719,3.7441,5.723.0009H5.48269c-1.7178,5.1309-.8252,11.374-0.1201,16.8008,0.2451,1.8906.5977,3.7031,0.7188,5.3994,0.7919,11.0518-6.9502,23.1201-6,28.9199,0.9296,7.5293,8.3964,9.3965,14.1601,12.3594,4.3467,2.2363,8.3125,4.9512,13.3213,5.1602h2.5566c5.0098-.209,8.9756-2.9248,13.3204-5.1602,5.7646-2.9639,13.2294-4.8301,14.1601-12.3594C58.55209,45.3203,50.80789,33.2529,51.59989,22.2011Zm-22.7578,3.7451h0a35.9175,35.9175,0,0,1-7.1602-.5048c0.6631-2.0518,4.0342-1.5596,7.0801-1.5596h0.1592c3.0459,0,6.417-.4922,7.0791,1.5596A35.97608,35.97608,0,0,1,28.84209,25.9462Z" transform="translate(-0.00042 -0.0009)"/></svg>
