<svg id="Layer_1" data-name="Layer 1" xmlns="http://www.w3.org/2000/svg" viewBox="0 0 44.6573 104.78125"><title>beard-5</title><path d="M43.38976,0.00022h-0.1182c-2.8164,21.5254-5.3818,22.5605-6.9609,22.6797-1.4268.1094-3.6436-1.7715-4.9209-2.5195a15.88654,15.88654,0,0,0-9.0606-2.545,15.89823,15.89823,0,0,0-9.0615,2.545c-1.2773.748-3.4941,2.6289-4.9199,2.5195-1.5801-.1192-4.1436-1.1543-6.959-22.6797H1.26966c-2.0728,12.208-1.5606,50.2031,1.1992,63.5996,2.6103,18.5195,10.1103,35.1045,13.4394,39.59962,0.6827,1.03906,3.5332,1.56641,6.4209,1.582,2.8868-.01562,5.7373-0.543,6.4209-1.582,3.3291-4.49512,10.8291-21.08012,13.4395-39.59962C44.94736,50.20332,45.462,12.20822,43.38976.00022Zm-21.0606,28.1504a100.20711,100.20711,0,0,0-10.1416.5293c1.1348-1.7539,8.9912-3.2402,10.1416-3.4492,1.1494,0.209,9.0059,1.6953,10.1407,3.4492A100.23181,100.23181,0,0,0,22.32916,28.15062Z" transform="translate(-0.00045 -0.00022)"/></svg>